<?xml version="1.0"?><svg width="640" height="480" xmlns="http://www.w3.org/2000/svg">
 <title>Hotel Motel Sleeping Accomodation clip art - Red/White</title>
 <g display="inline">
  <title>sgfdg</title>
  <rect fill="#7f0000" stroke="#000000" stroke-width="null" stroke-dasharray="null" stroke-linejoin="null" stroke-linecap="null" x="22" y="-121.000007" width="596.000002" height="576.000007" id="svg_8" rx="50" ry="50"/>
  <g id="svg_10">
   <g id="svg_11">
    <path d="m121.378281,306.835388c12.147385,0 21.993958,-8.98877 21.993958,-20.076385c0,-11.089172 -9.846573,-20.079468 -21.993958,-20.079468c-12.145744,0 -21.992874,8.990295 -21.992874,20.079468c0,11.087616 9.84713,20.076385 21.992874,20.076385z" id="svg_12" fill="#ffffff"/>
    <path d="m121.378281,286.759003" id="svg_13" fill="#ffffff"/>
   </g>
   <path d="m168.868988,281.06543l87.911743,0c12.897491,0 20.494934,7.578217 20.494934,17.723785l0,29.049225l-108.406677,0l0,-46.77301z" id="svg_14" fill="#ffffff"/>
   <path d="m144.939896,291.459625l0,17.42276l-33.800369,0c-16.3181,0.053406 -16.344566,19.202118 0,19.202118l44.312057,0c6.470978,0 10.522339,-4.767944 10.522339,-10.161499l0,-26.463379c0,-14.496887 -21.034027,-14.496887 -21.034027,0z" id="svg_15" fill="#ffffff"/>
   <path d="m95.186028,264.325348c0,-15.810333 -24.028191,-15.810333 -24.028191,0l0,126.78067l24.561623,0l0,-32.741547l186.881004,0l0,32.495483l24.027527,0l0,-97.920959c0,-16.68512 -24.29425,-16.68512 -24.29425,0l0,39.084351l-187.147728,0l0,-67.697998l0.000015,0z" id="svg_16" fill="#ffffff"/>
  </g>
  <rect fill="#ffffff" stroke="#ffffff" stroke-width="null" stroke-dasharray="null" stroke-linejoin="null" stroke-linecap="null" x="296.620202" y="-57.848146" width="308.603641" height="38" id="svg_17" rx="15" ry="15" transform="rotate(11.587170600891113 450.9220581054688,-38.84814453125009) "/>
  <rect fill="#ffffff" stroke="#ffffff" stroke-width="0" stroke-dasharray="null" stroke-linejoin="null" stroke-linecap="null" x="25.299721" y="-52.85086" width="303.661232" height="38" rx="15" ry="15" id="svg_18" transform="rotate(-13.780635833740234 177.13034057617185,-33.85086059570313) "/>
  <g id="svg_19">
   <g id="svg_20">
    <path d="m118.378281,126.835388c12.147385,0 21.993958,-8.98877 21.993958,-20.076385c0,-11.089172 -9.846573,-20.079475 -21.993958,-20.079475c-12.145744,0 -21.992874,8.990303 -21.992874,20.079475c0,11.087616 9.84713,20.076385 21.992874,20.076385z" fill="#ffffff" id="svg_21"/>
    <path d="m118.378281,106.759003" fill="#ffffff" id="svg_22"/>
   </g>
   <path d="m165.868988,101.06543l87.911743,0c12.897491,0 20.494934,7.578217 20.494934,17.723793l0,29.049217l-108.406677,0l0,-46.77301z" fill="#ffffff" id="svg_23"/>
   <path d="m141.939896,111.459633l0,17.422752l-33.800369,0c-16.3181,0.053406 -16.344566,19.202118 0,19.202118l44.312057,0c6.470978,0 10.522339,-4.767944 10.522339,-10.161499l0,-26.463371c0,-14.496895 -21.034027,-14.496895 -21.034027,0z" fill="#ffffff" id="svg_24"/>
   <path d="m92.186028,84.325348c0,-15.810341 -24.028191,-15.810341 -24.028191,0l0,126.78067l24.561623,0l0,-32.741547l186.881004,0l0,32.495483l24.027527,0l0,-97.920952c0,-16.68512 -24.29425,-16.68512 -24.29425,0l0,39.084343l-187.147728,0l0,-67.697998l0.000015,0z" fill="#ffffff" id="svg_25"/>
  </g>
  <g id="svg_26">
   <g id="svg_27">
    <path d="m400.378296,311.835388c12.147369,0 21.993958,-8.98877 21.993958,-20.076385c0,-11.089172 -9.846588,-20.079468 -21.993958,-20.079468c-12.145752,0 -21.992889,8.990295 -21.992889,20.079468c0,11.087616 9.847137,20.076385 21.992889,20.076385z" fill="#ffffff" id="svg_28"/>
    <path d="m400.378296,291.759003" fill="#ffffff" id="svg_29"/>
   </g>
   <path d="m447.868988,286.06543l87.911774,0c12.897461,0 20.494873,7.578217 20.494873,17.723785l0,29.049225l-108.406647,0l0,-46.77301z" fill="#ffffff" id="svg_30"/>
   <path d="m423.93988,296.459625l0,17.42276l-33.800354,0c-16.318085,0.053406 -16.344574,19.202118 0,19.202118l44.312073,0c6.470947,0 10.522339,-4.767944 10.522339,-10.161499l0,-26.463379c0,-14.496887 -21.034058,-14.496887 -21.034058,0z" fill="#ffffff" id="svg_31"/>
   <path d="m374.186035,269.325348c0,-15.810333 -24.028198,-15.810333 -24.028198,0l0,126.78067l24.561615,0l0,-32.741547l186.881012,0l0,32.495483l24.027527,0l0,-97.920959c0,-16.68512 -24.29425,-16.68512 -24.29425,0l0,39.084351l-187.147705,0l0,-67.697998z" fill="#ffffff" id="svg_32"/>
  </g>
  <g id="svg_33">
   <g id="svg_34">
    <path d="m397.378296,131.835388c12.147369,0 21.993958,-8.98877 21.993958,-20.076385c0,-11.089172 -9.846588,-20.079475 -21.993958,-20.079475c-12.145752,0 -21.992889,8.990303 -21.992889,20.079475c0,11.087616 9.847137,20.076385 21.992889,20.076385z" fill="#ffffff" id="svg_35"/>
    <path d="m397.378296,111.759003" fill="#ffffff" id="svg_36"/>
   </g>
   <path d="m444.868988,106.06543l87.911774,0c12.897461,0 20.494873,7.578217 20.494873,17.723793l0,29.049217l-108.406647,0l0,-46.77301z" fill="#ffffff" id="svg_37"/>
   <path d="m420.93988,116.459633l0,17.422752l-33.800354,0c-16.318085,0.053406 -16.344574,19.202118 0,19.202118l44.312073,0c6.470947,0 10.522339,-4.767944 10.522339,-10.161499l0,-26.463371c0,-14.496895 -21.034058,-14.496895 -21.034058,0z" fill="#ffffff" id="svg_38"/>
   <path d="m371.186035,89.325348c0,-15.810341 -24.028198,-15.810341 -24.028198,0l0,126.78067l24.561615,0l0,-32.741547l186.881012,0l0,32.495483l24.027527,0l0,-97.920952c0,-16.68512 -24.29425,-16.68512 -24.29425,0l0,39.084343l-187.147705,0l0,-67.697998z" fill="#ffffff" id="svg_39"/>
  </g>
  <text fill="#000000" stroke="#ffffff" stroke-width="0" stroke-dasharray="null" stroke-linejoin="null" stroke-linecap="null" opacity="0.5" x="-44" y="-171" id="svg_40" font-size="24" font-family="Arial" text-anchor="middle" xml:space="preserve"/>
  <rect fill="#ffffff" stroke="#ffffff" stroke-width="null" stroke-dasharray="null" stroke-linejoin="null" stroke-linecap="null" x="349.564214" y="228.674624" width="236.125452" height="11.862515" rx="15" ry="15" id="svg_41"/>
  <rect fill="#ffffff" stroke="#ffffff" stroke-width="null" stroke-dasharray="null" stroke-linejoin="null" stroke-linecap="null" x="69.564214" y="228.674624" width="236.125452" height="11.862515" rx="15" ry="15" id="svg_42"/>
 </g>
</svg>