<?xml version="1.0" encoding="utf-8"?>
<!-- Generator: Adobe Illustrator 16.0.0, SVG Export Plug-In . SVG Version: 6.00 Build 0)  -->
<!DOCTYPE svg PUBLIC "-//W3C//DTD SVG 1.1//EN" "http://www.w3.org/Graphics/SVG/1.1/DTD/svg11.dtd">
<svg version="1.1" id="Layer_1" xmlns="http://www.w3.org/2000/svg" xmlns:xlink="http://www.w3.org/1999/xlink" x="0px" y="0px"
	 width="159px" height="24.5px" viewBox="151 211.7 159 24.5" enable-background="new 151 211.7 159 24.5" xml:space="preserve">
<g>
	<path fill="#5C4846" d="M151,221.7c0.6-0.1,0.9-0.2,1.1-0.3c0.2-0.1,0.3-0.5,0.3-1.1v-6.8c0-0.6-0.1-0.9-0.2-1.1
		c-0.2-0.2-0.5-0.3-1.1-0.3v-0.3h4.1c1.4,0,2.6,0.2,3.5,0.7c1.7,0.8,2.6,2.3,2.6,4.4c0,0.8-0.2,1.5-0.5,2.2
		c-0.3,0.7-0.8,1.3-1.4,1.7c-0.4,0.3-0.8,0.5-1.2,0.7c-0.8,0.3-1.7,0.4-2.9,0.4h-4.2L151,221.7z M154.1,221.3
		c0.1,0.1,0.4,0.1,0.8,0.1c1.2,0,2.2-0.2,2.9-0.7c1.2-0.7,1.8-2,1.8-3.7c0-1.6-0.5-2.7-1.4-3.5c-0.8-0.7-1.9-1-3.3-1
		c-0.3,0-0.6,0-0.7,0.1c-0.1,0.1-0.2,0.2-0.2,0.5v7.8C153.9,221,154,221.2,154.1,221.3z"/>
	<path fill="#5C4846" d="M162,222v-0.2c0.3,0,0.6-0.2,0.7-0.4c0.2-0.2,0.4-0.8,0.8-1.7l2.7-6.2h0.3l3.1,7.2c0.2,0.5,0.4,0.8,0.5,0.9
		s0.3,0.2,0.6,0.2v0.2h-3.2v-0.2c0.4,0,0.6-0.1,0.7-0.1c0.1,0,0.2-0.2,0.2-0.3s0-0.2-0.1-0.3c0-0.2-0.1-0.3-0.2-0.5l-0.5-1.2h-3.3
		c-0.3,0.8-0.5,1.3-0.6,1.5c-0.1,0.2-0.1,0.3-0.1,0.4c0,0.2,0.1,0.4,0.3,0.4c0.1,0,0.3,0.1,0.6,0.1v0.2H162z M167.4,218.8l-1.4-3.5
		l-1.5,3.5H167.4z"/>
	<path fill="#5C4846" d="M171,221.8c0.5,0,0.8-0.1,0.9-0.3c0.1-0.1,0.2-0.5,0.2-1V215c0-0.4-0.1-0.7-0.2-0.9
		c-0.1-0.1-0.4-0.2-0.9-0.3v-0.2h3.5c0.7,0,1.3,0.1,1.8,0.3c0.9,0.4,1.4,1,1.4,1.9c0,0.6-0.2,1.1-0.6,1.4c-0.4,0.3-1,0.6-1.7,0.7
		l2.6,3.2c0.2,0.2,0.3,0.3,0.5,0.4s0.4,0.1,0.6,0.2v0.2h-2l-3.2-3.9h-0.6v2.5c0,0.5,0.1,0.8,0.2,0.9s0.5,0.2,0.9,0.3v0.2h-3.5
		L171,221.8z M175.4,217.4c0.7-0.3,1-0.8,1-1.6c0-0.7-0.3-1.2-0.9-1.5c-0.3-0.1-0.7-0.2-1.3-0.2c-0.4,0-0.6,0-0.7,0.1
		c-0.1,0.1-0.1,0.2-0.1,0.4v3.1C174.3,217.7,175,217.6,175.4,217.4z"/>
	<path fill="#5C4846" d="M183,221.8c0.5,0,0.8-0.1,0.9-0.2s0.2-0.4,0.2-0.9v-5.6c0-0.4-0.1-0.7-0.2-0.9c-0.1-0.1-0.4-0.2-0.9-0.3
		v-0.2h6.7v1.8h-0.3c-0.1-0.6-0.3-0.9-0.5-1.1c-0.2-0.2-0.7-0.2-1.4-0.3h-1.7c-0.2,0-0.3,0-0.3,0.1c0,0.1-0.1,0.2-0.1,0.3v2.8h2
		c0.5,0,0.9-0.1,1-0.2c0.1-0.2,0.3-0.5,0.4-1h0.3v2.9h-0.3c-0.1-0.5-0.2-0.8-0.4-1c-0.1-0.2-0.5-0.2-1-0.2h-2v3.1
		c0,0.3,0.1,0.4,0.2,0.4c0.2,0,0.6,0.1,1.4,0.1c0.9,0,1.5-0.1,1.9-0.3c0.4-0.2,0.8-0.6,1.1-1.4h0.4l-0.6,2.1H183L183,221.8z"/>
	<path fill="#5C4846" d="M191.4,219.5c0.2,0.6,0.5,1,0.7,1.4c0.5,0.6,1.1,0.9,1.9,0.9c0.4,0,0.8-0.1,1-0.4c0.3-0.3,0.4-0.6,0.4-1.1
		c0-0.4-0.1-0.8-0.4-1.1c-0.2-0.2-0.6-0.5-1.2-0.9l-1.1-0.7c-0.3-0.2-0.6-0.4-0.8-0.6c-0.4-0.4-0.5-0.8-0.5-1.3
		c0-0.6,0.2-1.2,0.6-1.6s1-0.6,1.7-0.6c0.3,0,0.6,0.1,1,0.2c0.4,0.1,0.6,0.2,0.7,0.2c0.2,0,0.3,0,0.3-0.1c0.1-0.1,0.1-0.2,0.1-0.3
		h0.3l0.3,2.7h-0.3c-0.2-0.8-0.5-1.4-1-1.7s-0.9-0.5-1.3-0.5c-0.3,0-0.6,0.1-0.9,0.3c-0.3,0.2-0.4,0.5-0.4,0.8
		c0,0.3,0.1,0.6,0.3,0.8c0.2,0.2,0.5,0.5,0.9,0.7l1.1,0.7c0.7,0.4,1.2,0.8,1.5,1.2c0.3,0.4,0.4,0.8,0.4,1.3c0,0.7-0.3,1.2-0.8,1.7
		c-0.5,0.4-1.1,0.7-1.9,0.7c-0.4,0-0.8-0.1-1.2-0.2c-0.4-0.1-0.7-0.2-0.7-0.2c-0.1,0-0.2,0-0.3,0.1c-0.1,0.1-0.1,0.2-0.1,0.3h-0.3
		l-0.4-2.7H191.4z"/>
	<path fill="#5C4846" d="M202.2,219.1c0.3,0.7,0.6,1.2,0.9,1.6c0.6,0.7,1.4,1.1,2.2,1.1c0.5,0,0.9-0.2,1.3-0.5
		c0.4-0.3,0.5-0.7,0.5-1.3c0-0.5-0.2-0.9-0.5-1.3c-0.2-0.2-0.7-0.6-1.5-1.1l-1.3-0.8c-0.4-0.2-0.7-0.5-0.9-0.8
		c-0.4-0.5-0.6-1-0.6-1.6c0-0.8,0.3-1.4,0.8-1.9s1.2-0.8,2-0.8c0.3,0,0.8,0.1,1.3,0.3s0.8,0.3,0.8,0.3c0.2,0,0.3,0,0.4-0.1
		c0.1-0.1,0.1-0.2,0.2-0.4h0.3l0.3,3.2H208c-0.2-1-0.6-1.7-1.2-2.1c-0.5-0.4-1.1-0.6-1.6-0.6c-0.4,0-0.8,0.1-1.1,0.4
		c-0.3,0.2-0.5,0.6-0.5,1c0,0.4,0.1,0.7,0.4,1c0.2,0.3,0.6,0.6,1.1,0.9l1.3,0.8c0.8,0.5,1.4,1,1.8,1.4c0.3,0.4,0.5,1,0.5,1.6
		c0,0.8-0.3,1.5-0.9,2c-0.6,0.5-1.4,0.8-2.3,0.8c-0.5,0-1-0.1-1.5-0.3c-0.5-0.2-0.8-0.3-0.9-0.3c-0.2,0-0.3,0.1-0.4,0.2
		c-0.1,0.1-0.1,0.2-0.1,0.3h-0.3l-0.4-3.2L202.2,219.1z"/>
	<path fill="#5C4846" d="M209.8,222.2V222c0.3,0,0.6-0.2,0.7-0.4c0.2-0.2,0.4-0.8,0.8-1.7l2.7-6.2h0.3l3.1,7.2
		c0.2,0.5,0.4,0.8,0.5,0.9c0.1,0.1,0.3,0.2,0.6,0.2v0.2h-3.2V222c0.4,0,0.6-0.1,0.7-0.1s0.2-0.2,0.2-0.3s0-0.2-0.1-0.3
		c0-0.2-0.1-0.3-0.2-0.5l-0.5-1.2h-3.3c-0.3,0.8-0.5,1.3-0.6,1.5c-0.1,0.2-0.1,0.3-0.1,0.4c0,0.2,0.1,0.4,0.3,0.4
		c0.1,0,0.3,0.1,0.6,0.1v0.2H209.8L209.8,222.2z M215.3,218.9l-1.4-3.5l-1.5,3.5H215.3z"/>
	<path fill="#5C4846" d="M218.9,222c0.5,0,0.8-0.1,0.9-0.2c0.1-0.1,0.2-0.4,0.2-0.9v-5.6c0-0.4-0.1-0.7-0.2-0.9
		c-0.1-0.1-0.4-0.2-0.9-0.3v-0.2h3.6v0.2c-0.5,0-0.8,0.1-0.9,0.2c-0.2,0.1-0.2,0.4-0.2,0.8v6.1c0,0.1,0,0.3,0.1,0.3
		c0,0.1,0.2,0.1,0.3,0.2c0.1,0,0.2,0,0.3,0s0.3,0,0.6,0c1.1,0,1.9-0.1,2.3-0.3c0.4-0.2,0.8-0.7,1.2-1.4h0.3l-0.6,2.2h-6.8L218.9,222
		z"/>
	<path fill="#5C4846" d="M226.7,222.2V222c0.3,0,0.6-0.2,0.7-0.4c0.2-0.2,0.4-0.8,0.8-1.7l2.7-6.2h0.3l3.1,7.2
		c0.2,0.5,0.4,0.8,0.5,0.9c0.1,0.1,0.3,0.2,0.6,0.2v0.2h-3.2V222c0.4,0,0.6-0.1,0.7-0.1s0.2-0.2,0.2-0.3s0-0.2-0.1-0.3
		c0-0.2-0.1-0.3-0.2-0.5l-0.5-1.2H229c-0.3,0.8-0.5,1.3-0.6,1.5c-0.1,0.2-0.1,0.3-0.1,0.4c0,0.2,0.1,0.4,0.3,0.4
		c0.1,0,0.3,0.1,0.6,0.1v0.2H226.7L226.7,222.2z M232.2,219l-1.4-3.5l-1.5,3.5H232.2z"/>
	<path fill="#5C4846" d="M235.8,222.3v-0.2c0.3,0,0.6-0.2,0.7-0.4c0.2-0.2,0.4-0.8,0.8-1.7l2.7-6.2h0.3l3.1,7.2
		c0.2,0.5,0.4,0.8,0.5,0.9s0.3,0.2,0.6,0.2v0.2h-3.2v-0.2c0.4,0,0.6-0.1,0.7-0.1s0.2-0.2,0.2-0.3c0-0.1,0-0.2-0.1-0.3
		c0-0.2-0.1-0.3-0.2-0.5l-0.5-1.2h-3.3c-0.3,0.8-0.5,1.3-0.6,1.5c-0.1,0.2-0.1,0.3-0.1,0.4c0,0.2,0.1,0.4,0.3,0.4
		c0.1,0,0.3,0.1,0.6,0.1v0.2H235.8z M241.3,219l-1.4-3.5l-1.5,3.5H241.3z"/>
	<path fill="#5C4846" d="M244.9,222c0.5-0.1,0.9-0.2,1-0.4c0.1-0.2,0.2-0.6,0.2-1.3v-5.1c0-0.5-0.1-0.8-0.2-0.9
		c-0.1-0.1-0.5-0.2-1-0.2v-0.2h2.5l2.9,6.3l2.9-6.3h2.5v0.2c-0.5,0-0.8,0.1-0.9,0.3c-0.1,0.1-0.2,0.4-0.2,0.9v5.6
		c0,0.5,0.1,0.8,0.2,0.9c0.1,0.1,0.4,0.2,0.9,0.3v0.2h-3.5v-0.2c0.5,0,0.8-0.1,1-0.3c0.1-0.1,0.2-0.5,0.2-1v-5.7l-3.3,7.2h-0.2
		l-3.2-6.9v5c0,0.7,0.1,1.1,0.3,1.4c0.1,0.1,0.4,0.2,0.9,0.3v0.2h-3V222L244.9,222z"/>
	<path fill="#5C4846" d="M260.6,219.3c0.3,0.7,0.6,1.2,0.9,1.6c0.6,0.7,1.4,1.1,2.2,1.1c0.5,0,0.9-0.2,1.3-0.5s0.5-0.7,0.5-1.3
		c0-0.5-0.2-0.9-0.5-1.3c-0.2-0.2-0.7-0.6-1.5-1.1l-1.3-0.8c-0.4-0.2-0.7-0.5-0.9-0.8c-0.4-0.5-0.6-1-0.6-1.6c0-0.8,0.3-1.4,0.8-1.9
		s1.2-0.8,2-0.8c0.3,0,0.8,0.1,1.3,0.3c0.5,0.2,0.8,0.3,0.8,0.3c0.2,0,0.3,0,0.4-0.1s0.1-0.2,0.2-0.4h0.3l0.3,3.2h-0.4
		c-0.2-1-0.6-1.7-1.2-2.1c-0.6-0.4-1.1-0.6-1.6-0.6c-0.4,0-0.8,0.1-1.1,0.4c-0.3,0.2-0.5,0.6-0.5,1s0.1,0.7,0.4,1
		c0.2,0.3,0.6,0.6,1.1,0.9l1.3,0.8c0.8,0.5,1.4,1,1.8,1.4c0.3,0.4,0.5,1,0.5,1.6c0,0.8-0.3,1.5-0.9,2c-0.6,0.5-1.4,0.8-2.3,0.8
		c-0.5,0-1-0.1-1.5-0.3c-0.5-0.2-0.8-0.3-0.9-0.3c-0.2,0-0.3,0.1-0.4,0.2s-0.1,0.2-0.1,0.3h-0.3l-0.4-3.2L260.6,219.3z"/>
	<path fill="#5C4846" d="M268.2,222.1c0.5,0,0.8-0.1,0.9-0.2s0.2-0.4,0.2-0.9v-5.6c0-0.4-0.1-0.7-0.2-0.9c-0.1-0.1-0.4-0.2-0.9-0.3
		V214h6.7v1.8h-0.3c-0.1-0.6-0.3-0.9-0.5-1.1c-0.2-0.2-0.7-0.2-1.4-0.3H271c-0.2,0-0.3,0-0.3,0.1s-0.1,0.2-0.1,0.3v2.8h2
		c0.5,0,0.9-0.1,1-0.2c0.1-0.2,0.3-0.5,0.4-1h0.3v2.9H274c-0.1-0.5-0.2-0.8-0.4-1c-0.1-0.2-0.5-0.2-1-0.2h-2v3.1
		c0,0.3,0.1,0.4,0.2,0.4c0.2,0,0.6,0.1,1.4,0.1c0.9,0,1.5-0.1,1.9-0.3c0.4-0.2,0.8-0.6,1.1-1.4h0.4l-0.6,2.1H268.2L268.2,222.1z"/>
	<path fill="#5C4846" d="M275.9,222.2c0.5,0,0.8-0.1,0.9-0.3c0.1-0.1,0.2-0.5,0.2-1v-5.5c0-0.4-0.1-0.7-0.2-0.9
		c-0.1-0.1-0.4-0.2-0.9-0.3V214h3.5c0.7,0,1.3,0.1,1.8,0.3c0.9,0.4,1.4,1,1.4,1.9c0,0.6-0.2,1.1-0.6,1.4c-0.4,0.3-1,0.6-1.7,0.7
		l2.6,3.2c0.2,0.2,0.3,0.3,0.5,0.4c0.2,0.1,0.4,0.1,0.6,0.2v0.2h-2l-3.2-3.9h-0.6v2.5c0,0.5,0.1,0.8,0.2,0.9
		c0.1,0.1,0.5,0.2,0.9,0.3v0.2h-3.5L275.9,222.2z M280.3,217.8c0.7-0.3,1-0.8,1-1.5c0-0.7-0.3-1.2-0.9-1.5c-0.3-0.1-0.7-0.2-1.3-0.2
		c-0.4,0-0.6,0-0.7,0.1c-0.1,0.1-0.1,0.2-0.1,0.4v3.1C279.2,218,279.9,217.9,280.3,217.8z"/>
	<path fill="#5C4846" d="M284.4,222.2c0.5,0,0.8-0.1,0.9-0.2c0.1-0.1,0.2-0.4,0.2-0.9v-5.6c0-0.4-0.1-0.7-0.2-0.9
		c-0.1-0.1-0.4-0.2-0.9-0.3v-0.2h6.7v1.8h-0.3c-0.1-0.6-0.3-0.9-0.5-1.1c-0.2-0.2-0.7-0.2-1.4-0.3h-1.7c-0.2,0-0.3,0-0.3,0.1
		s-0.1,0.2-0.1,0.3v2.8h2c0.5,0,0.9-0.1,1-0.2c0.1-0.2,0.3-0.5,0.4-1h0.3v2.9h-0.3c-0.1-0.5-0.2-0.8-0.4-1c-0.1-0.2-0.5-0.2-1-0.2
		h-2v3.1c0,0.3,0.1,0.4,0.2,0.4c0.2,0,0.6,0.1,1.4,0.1c0.9,0,1.5-0.1,1.9-0.3c0.4-0.2,0.8-0.6,1.1-1.4h0.4l-0.6,2.1H284.4
		L284.4,222.2z"/>
	<path fill="#5C4846" d="M292.1,222.2c0.5-0.1,0.9-0.2,1-0.4c0.1-0.2,0.2-0.6,0.2-1.3v-5.6l-0.2-0.2c-0.2-0.2-0.3-0.4-0.5-0.4
		c-0.1-0.1-0.3-0.1-0.6-0.1V214h2.2l4.9,6.1v-4.2c0-0.7-0.1-1.1-0.3-1.4c-0.1-0.1-0.4-0.2-0.9-0.3V214h3v0.2c-0.5,0-0.8,0.2-1,0.3
		c-0.2,0.2-0.2,0.6-0.2,1.3v6.7h-0.2l-5.6-7v4.9c0,0.7,0.1,1.1,0.3,1.4c0.1,0.1,0.4,0.2,0.9,0.3v0.2h-3V222.2L292.1,222.2z"/>
	<path fill="#5C4846" d="M301.3,222.5v-0.2c0.3,0,0.6-0.2,0.7-0.4c0.2-0.2,0.4-0.8,0.8-1.7l2.7-6.2h0.3l3.101,7.2
		c0.199,0.5,0.399,0.8,0.5,0.9c0.1,0.1,0.3,0.2,0.6,0.2v0.2h-3.2v-0.2c0.4,0,0.601-0.1,0.7-0.1s0.2-0.2,0.2-0.3s0-0.2-0.101-0.3
		c0-0.2-0.1-0.3-0.199-0.5l-0.5-1.2h-3.3c-0.3,0.8-0.5,1.3-0.6,1.5c-0.1,0.2-0.1,0.3-0.1,0.4c0,0.2,0.1,0.4,0.3,0.4
		c0.1,0,0.3,0.1,0.6,0.1v0.2H301.3z M306.7,219.3l-1.4-3.5l-1.5,3.5H306.7z"/>
	<path fill="#5C4846" d="M216.4,236c0.3,0,0.5-0.1,0.6-0.2c0.1-0.1,0.1-0.3,0.1-0.7v-3.6c0-0.3,0-0.5-0.1-0.6s-0.3-0.1-0.6-0.2v-0.2
		h2.3v0.2c-0.3,0-0.5,0.1-0.6,0.2s-0.1,0.3-0.1,0.6v1.6h2.5v-1.6c0-0.3,0-0.5-0.1-0.6s-0.3-0.1-0.6-0.2v-0.2h2.3v0.2
		c-0.3,0-0.5,0.1-0.6,0.2s-0.1,0.3-0.1,0.6v3.7c0,0.3,0,0.5,0.1,0.6c0.1,0.1,0.3,0.1,0.6,0.2v0.2h-2.3V236c0.3,0,0.5-0.1,0.6-0.2
		c0.1-0.1,0.1-0.3,0.1-0.7v-1.6H218v1.7c0,0.3,0,0.5,0.1,0.6c0.1,0.1,0.3,0.1,0.6,0.2v0.2h-2.3V236L216.4,236z"/>
	<path fill="#5C4846" d="M223.6,231.3c0.5-0.5,1.1-0.7,1.9-0.7c0.7,0,1.4,0.2,1.9,0.7s0.8,1.2,0.8,2.1s-0.3,1.6-0.9,2.1
		c-0.5,0.5-1.1,0.7-1.8,0.7c-0.8,0-1.4-0.3-1.9-0.8s-0.8-1.2-0.8-2.1C222.8,232.5,223,231.8,223.6,231.3z M224.2,235.3
		c0.3,0.4,0.8,0.6,1.3,0.6s0.9-0.2,1.2-0.6c0.3-0.4,0.5-1,0.5-1.9s-0.2-1.5-0.5-1.9c-0.3-0.4-0.8-0.6-1.2-0.6
		c-0.5,0-0.9,0.2-1.3,0.6c-0.3,0.4-0.5,1.1-0.5,1.9C223.7,234.3,223.9,234.9,224.2,235.3z"/>
	<path fill="#5C4846" d="M229,230.7h4.7v1.4h-0.2c-0.1-0.4-0.2-0.7-0.4-0.9c-0.1-0.1-0.5-0.2-0.9-0.2h-0.5v4.2c0,0.3,0,0.5,0.1,0.6
		c0.1,0.1,0.3,0.1,0.7,0.2v0.2h-2.4V236c0.3,0,0.6-0.1,0.7-0.2c0.1-0.1,0.1-0.3,0.1-0.7V231h-0.5c-0.5,0-0.8,0.1-0.9,0.2
		c-0.2,0.1-0.3,0.4-0.4,0.9h-0.2L229,230.7z"/>
	<path fill="#5C4846" d="M234.2,236c0.3,0,0.5-0.1,0.6-0.2c0.1-0.1,0.1-0.3,0.1-0.6v-3.7c0-0.3,0-0.5-0.1-0.6
		c-0.1-0.1-0.3-0.1-0.6-0.2v-0.2h4.4v1.2h-0.2c-0.1-0.4-0.2-0.6-0.3-0.7s-0.4-0.2-0.9-0.2h-1.1c-0.1,0-0.2,0-0.2,0.1
		c0,0,0,0.1,0,0.2v1.8h1.3c0.4,0,0.6-0.1,0.7-0.2c0.1-0.1,0.2-0.3,0.2-0.6h0.2v1.9h-0.2c-0.1-0.3-0.1-0.5-0.2-0.6s-0.3-0.2-0.7-0.2
		h-1.3v2c0,0.2,0.1,0.3,0.2,0.3s0.4,0,0.9,0c0.6,0,1-0.1,1.2-0.2c0.3-0.1,0.5-0.4,0.7-0.9h0.2l-0.4,1.4h-4.5V236L234.2,236z"/>
	<path fill="#5C4846" d="M239.6,236c0.3,0,0.5-0.1,0.6-0.2c0.1-0.1,0.1-0.3,0.1-0.6v-3.7c0-0.3,0-0.5-0.1-0.6
		c-0.1-0.1-0.3-0.1-0.6-0.2v-0.2h2.3v0.2c-0.3,0-0.5,0.1-0.6,0.1c-0.1,0.1-0.2,0.3-0.2,0.5v4c0,0.1,0,0.2,0,0.2
		c0,0.1,0.1,0.1,0.2,0.1c0.1,0,0.1,0,0.2,0s0.2,0,0.4,0c0.7,0,1.2-0.1,1.5-0.2c0.3-0.1,0.5-0.4,0.8-0.9h0.2l-0.4,1.4L239.6,236
		L239.6,236z"/>
</g>
</svg>
