<?xml version="1.0" encoding="utf-8"?>
<!-- Generator: Adobe Illustrator 16.0.0, SVG Export Plug-In . SVG Version: 6.00 Build 0)  -->
<!DOCTYPE svg PUBLIC "-//W3C//DTD SVG 1.1//EN" "http://www.w3.org/Graphics/SVG/1.1/DTD/svg11.dtd">
<svg version="1.1" id="Layer_1" xmlns="http://www.w3.org/2000/svg" xmlns:xlink="http://www.w3.org/1999/xlink" x="0px" y="0px"
	 width="127px" height="53.701px" viewBox="1 187.699 127 53.701" enable-background="new 1 187.699 127 53.701"
	 xml:space="preserve">
<g>
	<path fill="#F6871F" d="M66.9,205.3l-6.7-6.8c0-2.3,1.9-4.2,4.3-4.2s4.2,1.9,4.2,4.3l6.7,6.8c0,6.1-5,11-11,10.9
		c-6.1,0-11-5-10.9-11v-5.1l5.1,5.2c0,3.2,2.6,5.8,5.8,5.9c3.2,0,5.8-2.6,5.9-5.8l-6.7-6.8c0-0.5,0.4-0.9,0.9-0.9s0.9,0.4,0.9,0.9
		l6.7,6.8c0,4.2-3.4,7.6-7.6,7.6s-7.6-3.4-7.6-7.6l-1.6-1.6v1.6c0,5.1,4.1,9.2,9.2,9.2s9.2-4.1,9.2-9.2l-6.7-6.8
		c0-1.4-1.1-2.5-2.5-2.5s-2.5,1.1-2.5,2.5l6.7,6.8c0,2.4-1.9,4.2-4.3,4.2s-4.2-1.9-4.2-4.3l-6.7-6.8c0-6.1,5-11,11-10.9
		c6.1,0,11,5,10.9,11v5.1l-5.1-5.2c0-3.2-2.6-5.8-5.8-5.9c-3.2,0-5.8,2.6-5.9,5.8l6.7,6.8c0,0.5-0.4,0.9-0.9,0.9s-0.9-0.4-0.9-0.9
		l-6.7-6.8c0-4.2,3.4-7.6,7.6-7.6c4.2,0,7.6,3.4,7.6,7.6l1.6,1.6v-1.6c0-5.1-4.1-9.2-9.2-9.2s-9.2,4.1-9.2,9.2l6.7,6.8
		c0,1.4,1.1,2.5,2.5,2.5C65.8,207.7,66.9,206.6,66.9,205.3"/>
	<path fill="#5C4846" d="M1,229.7c0.4,0,0.7-0.1,0.9-0.2c0.1-0.1,0.2-0.4,0.2-0.9v-5.4c0-0.4-0.1-0.7-0.2-0.9
		c-0.1-0.1-0.4-0.2-0.9-0.2v-0.2h3.3c1.1,0,2,0.2,2.8,0.6c1.4,0.7,2.1,1.8,2.1,3.5c0,0.6-0.1,1.2-0.4,1.7c-0.3,0.5-0.6,1-1.1,1.4
		c-0.3,0.2-0.6,0.4-1,0.5c-0.6,0.2-1.4,0.3-2.3,0.3H1V229.7z M3.5,229.4c0.1,0.1,0.3,0.1,0.6,0.1c1,0,1.7-0.2,2.4-0.6
		c0.9-0.6,1.4-1.6,1.4-3c0-1.2-0.4-2.2-1.2-2.8c-0.7-0.5-1.5-0.8-2.6-0.8c-0.3,0-0.5,0-0.6,0.1s-0.1,0.2-0.1,0.4v6.2
		C3.3,229.2,3.4,229.3,3.5,229.4z"/>
	<path fill="#5C4846" d="M9.7,229.9v-0.2c0.3,0,0.5-0.1,0.6-0.3c0.1-0.2,0.4-0.6,0.7-1.4l2.1-5h0.2l2.5,5.7c0.2,0.4,0.3,0.6,0.4,0.7
		c0.1,0.1,0.3,0.2,0.5,0.2v0.2h-2.6v-0.2c0.3,0,0.5-0.1,0.6-0.1c0.1,0,0.1-0.1,0.1-0.3c0,0,0-0.1,0-0.3c0-0.1-0.1-0.3-0.1-0.4
		l-0.4-1h-2.7c-0.3,0.7-0.4,1.1-0.5,1.2C11,228.8,11,229,11,229c0,0.2,0.1,0.3,0.2,0.4c0.1,0,0.2,0.1,0.5,0.1v0.2L9.7,229.9z
		 M14.1,227.4l-1.1-2.8l-1.2,2.8H14.1z"/>
	<path fill="#5C4846" d="M17,229.8c0.4,0,0.6-0.1,0.7-0.2c0.1-0.1,0.1-0.4,0.1-0.8v-4.4c0-0.4-0.1-0.6-0.2-0.7
		c-0.1-0.1-0.3-0.2-0.7-0.2v-0.2h2.8c0.6,0,1.1,0.1,1.5,0.2c0.7,0.3,1.1,0.8,1.1,1.5c0,0.5-0.2,0.9-0.5,1.2
		c-0.3,0.3-0.8,0.4-1.3,0.5l2.1,2.6c0.1,0.2,0.3,0.3,0.4,0.3c0.1,0.1,0.3,0.1,0.5,0.1v0.2h-1.6l-2.5-3.1H19v2c0,0.4,0.1,0.6,0.2,0.7
		c0.1,0.1,0.4,0.2,0.7,0.2v0.2h-2.8L17,229.8z M20.5,226.3c0.5-0.2,0.8-0.6,0.8-1.2s-0.2-1-0.7-1.2c-0.3-0.1-0.6-0.2-1-0.2
		c-0.3,0-0.5,0-0.5,0.1c-0.1,0-0.1,0.1-0.1,0.3v2.5C19.6,226.5,20.2,226.4,20.5,226.3z"/>
	<path fill="#5C4846" d="M26.6,229.8c0.4,0,0.6-0.1,0.7-0.2c0.1-0.1,0.2-0.3,0.2-0.7v-4.5c0-0.4-0.1-0.6-0.2-0.7
		c-0.1-0.1-0.3-0.2-0.7-0.2v-0.2H32v1.4h-0.3c-0.1-0.4-0.2-0.7-0.4-0.9c-0.2-0.1-0.6-0.2-1.1-0.2h-1.4c-0.1,0-0.2,0-0.3,0.1
		c0,0-0.1,0.1-0.1,0.3v2.3H30c0.4,0,0.7-0.1,0.8-0.2c0.1-0.1,0.2-0.4,0.3-0.8h0.2v2.3h-0.2c-0.1-0.4-0.2-0.7-0.3-0.8
		c-0.1-0.1-0.4-0.2-0.8-0.2h-1.6v2.5c0,0.2,0.1,0.3,0.2,0.4c0.1,0,0.5,0.1,1.1,0.1c0.7,0,1.2-0.1,1.5-0.2c0.3-0.1,0.6-0.5,0.9-1.1
		h0.3l-0.5,1.7h-5.5L26.6,229.8z"/>
	<path fill="#5C4846" d="M33.3,228c0.2,0.5,0.4,0.8,0.6,1.1c0.4,0.5,0.9,0.7,1.5,0.7c0.3,0,0.6-0.1,0.8-0.3c0.2-0.2,0.4-0.5,0.4-0.9
		c0-0.3-0.1-0.6-0.4-0.9c-0.2-0.2-0.5-0.4-1-0.7l-0.9-0.5c-0.3-0.2-0.5-0.3-0.6-0.5c-0.3-0.3-0.4-0.7-0.4-1.1c0-0.5,0.2-0.9,0.5-1.3
		c0.3-0.3,0.8-0.5,1.3-0.5c0.2,0,0.5,0.1,0.8,0.2c0.3,0.1,0.5,0.2,0.6,0.2s0.2,0,0.3-0.1c0-0.1,0.1-0.1,0.1-0.3h0.2l0.2,2.2h-0.2
		c-0.2-0.6-0.4-1.1-0.8-1.4c-0.4-0.3-0.7-0.4-1.1-0.4c-0.3,0-0.5,0.1-0.7,0.2c-0.2,0.2-0.3,0.4-0.3,0.7c0,0.3,0.1,0.5,0.2,0.7
		c0.2,0.2,0.4,0.4,0.7,0.6l0.9,0.6c0.6,0.3,0.9,0.7,1.2,0.9c0.2,0.3,0.3,0.6,0.3,1c0,0.5-0.2,1-0.6,1.3c-0.4,0.4-0.9,0.5-1.5,0.5
		c-0.3,0-0.6-0.1-1-0.2c-0.3-0.1-0.5-0.2-0.6-0.2c-0.1,0-0.2,0-0.2,0.1c0,0.1-0.1,0.1-0.1,0.2h-0.2l-0.3-2.2L33.3,228z"/>
	<path fill="#5C4846" d="M41.9,227.6c0.2,0.5,0.4,1,0.7,1.3c0.5,0.6,1.1,0.9,1.8,0.9c0.4,0,0.7-0.1,1-0.4c0.3-0.2,0.4-0.6,0.4-1
		s-0.1-0.7-0.4-1c-0.2-0.2-0.6-0.5-1.2-0.8l-1-0.7c-0.3-0.2-0.6-0.4-0.7-0.6c-0.3-0.4-0.5-0.8-0.5-1.3c0-0.6,0.2-1.1,0.6-1.5
		s1-0.6,1.6-0.6c0.3,0,0.6,0.1,1,0.2c0.4,0.1,0.6,0.2,0.7,0.2c0.2,0,0.3,0,0.3-0.1c0.1-0.1,0.1-0.2,0.1-0.3h0.2l0.3,2.6h-0.3
		c-0.2-0.8-0.5-1.3-0.9-1.6c-0.4-0.3-0.9-0.5-1.3-0.5c-0.3,0-0.6,0.1-0.9,0.3c-0.2,0.2-0.4,0.5-0.4,0.8s0.1,0.6,0.3,0.8
		c0.2,0.2,0.5,0.5,0.9,0.7l1.1,0.7c0.7,0.4,1.1,0.8,1.4,1.1c0.3,0.3,0.4,0.8,0.4,1.2c0,0.6-0.2,1.2-0.7,1.6s-1.1,0.6-1.8,0.6
		c-0.4,0-0.8-0.1-1.2-0.2s-0.6-0.2-0.7-0.2c-0.1,0-0.2,0-0.3,0.1c0,0.1-0.1,0.2-0.1,0.3H42l-0.4-2.6H41.9z"/>
	<path fill="#5C4846" d="M48,230.1v-0.2c0.3,0,0.5-0.1,0.6-0.3c0.1-0.2,0.4-0.6,0.7-1.4l2.1-5h0.2l2.5,5.7c0.2,0.4,0.3,0.6,0.4,0.7
		s0.3,0.2,0.5,0.2v0.2h-2.6v-0.2c0.3,0,0.5-0.1,0.6-0.1s0.1-0.1,0.1-0.3c0,0,0-0.1,0-0.3c0-0.1-0.1-0.3-0.1-0.4l-0.4-1h-2.7
		c-0.3,0.7-0.4,1.1-0.5,1.2s-0.1,0.3-0.1,0.3c0,0.2,0.1,0.3,0.2,0.4c0.1,0,0.2,0.1,0.5,0.1v0.2L48,230.1z M52.4,227.5l-1.1-2.8
		l-1.2,2.8H52.4z"/>
	<path fill="#5C4846" d="M55.3,229.9c0.4,0,0.6-0.1,0.7-0.2c0.1-0.1,0.2-0.3,0.2-0.7v-4.5c0-0.4-0.1-0.6-0.2-0.7
		c-0.1-0.1-0.3-0.2-0.7-0.2v-0.2h2.9v0.2c-0.4,0-0.6,0.1-0.7,0.2c-0.1,0.1-0.2,0.3-0.2,0.7v4.9c0,0.1,0,0.2,0.1,0.3
		c0,0.1,0.1,0.1,0.2,0.1s0.2,0,0.2,0c0.1,0,0.2,0,0.5,0c0.9,0,1.5-0.1,1.8-0.2c0.3-0.1,0.6-0.5,0.9-1.1h0.3l-0.5,1.7h-5.4
		L55.3,229.9z"/>
	<path fill="#5C4846" d="M61.5,230.1v-0.2c0.3,0,0.5-0.1,0.6-0.3c0.1-0.2,0.4-0.6,0.7-1.4l2.1-5h0.2l2.5,5.7
		c0.2,0.4,0.3,0.6,0.4,0.7s0.3,0.2,0.5,0.2v0.2h-2.6v-0.2c0.3,0,0.5-0.1,0.6-0.1s0.1-0.1,0.1-0.3c0,0,0-0.1,0-0.3
		c0-0.1-0.1-0.3-0.1-0.4l-0.4-1h-2.7c-0.3,0.7-0.4,1.1-0.5,1.2s-0.1,0.3-0.1,0.3c0,0.2,0.1,0.3,0.2,0.4c0.1,0,0.2,0.1,0.5,0.1v0.2
		L61.5,230.1z M65.8,227.6l-1.1-2.8l-1.2,2.8H65.8z"/>
	<path fill="#5C4846" d="M68.8,230.2V230c0.3,0,0.5-0.1,0.6-0.3c0.1-0.2,0.4-0.6,0.7-1.4l2.1-5h0.2l2.5,5.7c0.2,0.4,0.3,0.6,0.4,0.7
		c0.1,0.1,0.3,0.2,0.5,0.2v0.2h-2.6v-0.2c0.3,0,0.5-0.1,0.6-0.1c0.1,0,0.1-0.1,0.1-0.3c0,0,0-0.1,0-0.3c0-0.1-0.1-0.3-0.1-0.4
		l-0.4-1h-2.7c-0.3,0.7-0.4,1.1-0.5,1.2c-0.1,0.1-0.1,0.3-0.1,0.3c0,0.2,0.1,0.3,0.2,0.4c0.1,0,0.2,0.1,0.5,0.1v0.2L68.8,230.2z
		 M73.1,227.6l-1.1-2.8l-1.2,2.8H73.1z"/>
	<path fill="#5C4846" d="M76,230c0.4,0,0.7-0.1,0.8-0.3c0.1-0.1,0.2-0.5,0.2-1v-4.1c0-0.4-0.1-0.6-0.2-0.7c-0.1-0.1-0.4-0.2-0.8-0.2
		v-0.2h2l2.3,5l2.3-5h2v0.2c-0.4,0-0.6,0.1-0.7,0.2s-0.2,0.3-0.2,0.7v4.5c0,0.4,0.1,0.6,0.2,0.7c0.1,0.1,0.3,0.2,0.7,0.2v0.2h-2.8
		V230c0.4,0,0.7-0.1,0.8-0.2c0.1-0.1,0.2-0.4,0.2-0.8v-4.5l-2.6,5.7h-0.1l-2.5-5.5v4c0,0.6,0.1,0.9,0.2,1.1c0.1,0.1,0.3,0.2,0.7,0.2
		v0.2h-2.4L76,230z"/>
	<path fill="#5C4846" d="M88.5,227.8c0.2,0.5,0.4,1,0.7,1.3c0.5,0.6,1.1,0.9,1.8,0.9c0.4,0,0.7-0.1,1-0.4c0.3-0.2,0.4-0.6,0.4-1
		s-0.1-0.7-0.4-1c-0.2-0.2-0.6-0.5-1.2-0.8l-1-0.7c-0.3-0.2-0.6-0.4-0.7-0.6c-0.3-0.4-0.5-0.8-0.5-1.3c0-0.6,0.2-1.1,0.6-1.5
		c0.4-0.4,1-0.6,1.6-0.6c0.3,0,0.6,0.1,1,0.2c0.4,0.1,0.6,0.2,0.7,0.2c0.2,0,0.3,0,0.3-0.1c0.1-0.1,0.1-0.2,0.1-0.3h0.2l0.3,2.6
		h-0.3c-0.2-0.8-0.5-1.3-0.9-1.6c-0.4-0.3-0.9-0.5-1.3-0.5c-0.3,0-0.6,0.1-0.9,0.3c-0.2,0.2-0.4,0.5-0.4,0.8c0,0.3,0.1,0.6,0.3,0.8
		c0.2,0.2,0.5,0.5,0.9,0.7l1.1,0.7c0.7,0.4,1.1,0.8,1.4,1.1c0.3,0.3,0.4,0.8,0.4,1.2c0,0.6-0.2,1.2-0.7,1.6
		c-0.5,0.4-1.1,0.6-1.8,0.6c-0.4,0-0.8-0.1-1.2-0.2c-0.4-0.1-0.6-0.2-0.7-0.2c-0.1,0-0.2,0-0.3,0.1c0,0.1-0.1,0.2-0.1,0.3h-0.3
		l-0.4-2.6H88.5z"/>
	<path fill="#5C4846" d="M94.6,230.1c0.4,0,0.6-0.1,0.7-0.2c0.1-0.1,0.2-0.3,0.2-0.7v-4.5c0-0.4-0.1-0.6-0.2-0.7
		c-0.1-0.1-0.3-0.2-0.7-0.2v-0.2h5.4v1.4h-0.3c-0.1-0.4-0.2-0.7-0.4-0.9c-0.2-0.1-0.6-0.2-1.1-0.2h-1.4c-0.1,0-0.2,0-0.3,0.1
		c0,0-0.1,0.1-0.1,0.3v2.3H98c0.4,0,0.7-0.1,0.8-0.2c0.1-0.1,0.2-0.4,0.3-0.8h0.2v2.3h-0.2c-0.1-0.4-0.2-0.7-0.3-0.8
		c-0.1-0.1-0.4-0.2-0.8-0.2h-1.6v2.5c0,0.2,0.1,0.3,0.2,0.4c0.1,0,0.5,0.1,1.1,0.1c0.7,0,1.2-0.1,1.5-0.2c0.3-0.1,0.6-0.5,0.9-1.1
		h0.3l-0.5,1.7h-5.5L94.6,230.1z"/>
	<path fill="#5C4846" d="M100.8,230.1c0.4,0,0.6-0.1,0.7-0.2s0.1-0.4,0.1-0.8v-4.4c0-0.4-0.1-0.6-0.2-0.7s-0.3-0.2-0.7-0.2v-0.2h2.8
		c0.6,0,1.1,0.1,1.5,0.2c0.7,0.3,1.1,0.8,1.1,1.5c0,0.5-0.2,0.9-0.5,1.2c-0.3,0.3-0.8,0.4-1.3,0.5l2.1,2.6c0.1,0.2,0.3,0.3,0.4,0.3
		c0.1,0.1,0.3,0.1,0.5,0.1v0.2h-1.6l-2.5-3.1h-0.4v2c0,0.4,0.1,0.6,0.2,0.7c0.1,0.1,0.4,0.2,0.7,0.2v0.2h-2.8L100.8,230.1z
		 M104.2,226.6c0.5-0.2,0.8-0.6,0.8-1.2s-0.2-1-0.7-1.2c-0.3-0.1-0.6-0.2-1-0.2c-0.3,0-0.5,0-0.5,0.1c-0.1,0-0.1,0.1-0.1,0.3v2.5
		C103.4,226.8,103.9,226.7,104.2,226.6z"/>
	<path fill="#5C4846" d="M107.5,230.1c0.4,0,0.6-0.1,0.7-0.2c0.1-0.1,0.2-0.3,0.2-0.7v-4.5c0-0.4-0.1-0.6-0.2-0.7
		c-0.1-0.1-0.3-0.2-0.7-0.2v-0.2h5.4v1.4h-0.3c-0.1-0.4-0.2-0.7-0.4-0.9c-0.2-0.1-0.6-0.2-1.1-0.2h-1.4c-0.1,0-0.2,0-0.3,0.1
		c0,0-0.1,0.1-0.1,0.3v2.3h1.6c0.4,0,0.7-0.1,0.8-0.2c0.1-0.1,0.2-0.4,0.3-0.8h0.2v2.3H112c-0.1-0.4-0.2-0.7-0.3-0.8
		c-0.1-0.1-0.4-0.2-0.8-0.2h-1.6v2.5c0,0.2,0.1,0.3,0.2,0.4c0.1,0,0.5,0.1,1.1,0.1c0.7,0,1.2-0.1,1.5-0.2c0.3-0.1,0.6-0.5,0.9-1.1
		h0.3l-0.5,1.7h-5.5L107.5,230.1z"/>
	<path fill="#5C4846" d="M113.7,230.1c0.4,0,0.7-0.1,0.8-0.3c0.1-0.1,0.2-0.5,0.2-1v-4.5l-0.1-0.2c-0.1-0.2-0.3-0.3-0.4-0.3
		c-0.1,0-0.3-0.1-0.5-0.1v-0.2h1.7l3.9,4.8v-3.4c0-0.6-0.1-0.9-0.2-1.1c-0.1-0.1-0.3-0.2-0.7-0.2v-0.2h2.4v0.2
		c-0.4,0-0.6,0.1-0.8,0.3c-0.1,0.1-0.2,0.5-0.2,1v5.3h-0.2l-4.5-5.6v3.9c0,0.6,0.1,0.9,0.2,1.1c0.1,0.1,0.3,0.2,0.7,0.2v0.2h-2.4
		L113.7,230.1z"/>
	<path fill="#5C4846" d="M121,230.3v-0.2c0.3,0,0.5-0.1,0.6-0.3c0.1-0.2,0.4-0.6,0.7-1.4l2.1-5h0.2l2.5,5.7c0.2,0.4,0.3,0.6,0.4,0.7
		c0.1,0.1,0.3,0.2,0.5,0.2v0.2h-2.6V230c0.3,0,0.5-0.1,0.6-0.1s0.1-0.1,0.1-0.3c0,0,0-0.1,0-0.3c0-0.1-0.1-0.3-0.1-0.4l-0.4-1h-2.7
		c-0.3,0.7-0.4,1.1-0.5,1.2s-0.1,0.3-0.1,0.3c0,0.2,0.1,0.3,0.2,0.4c0.1,0,0.2,0.1,0.5,0.1v0.2L121,230.3z M125.4,227.8l-1.1-2.8
		l-1.2,2.8H125.4z"/>
	<path fill="#5C4846" d="M53.2,241.1c0.3,0,0.4-0.1,0.5-0.1c0.1-0.1,0.1-0.2,0.1-0.5v-2.9c0-0.2,0-0.4-0.1-0.5
		c-0.1-0.1-0.2-0.1-0.5-0.1v-0.1H55v0.1c-0.2,0-0.4,0.1-0.5,0.1c-0.1,0.1-0.1,0.2-0.1,0.5v1.3h2v-1.3c0-0.2,0-0.4-0.1-0.5
		c-0.1-0.1-0.2-0.1-0.5-0.1v-0.1h1.8v0.1c-0.2,0-0.4,0.1-0.5,0.1c-0.1,0.1-0.1,0.2-0.1,0.5v2.9c0,0.2,0,0.4,0.1,0.5s0.2,0.1,0.5,0.1
		v0.1h-1.8v-0.1c0.3,0,0.4-0.1,0.5-0.1c0.1-0.1,0.1-0.2,0.1-0.5v-1.3h-2v1.4c0,0.2,0,0.4,0.1,0.5s0.2,0.1,0.5,0.1v0.1h-1.8V241.1z"
		/>
	<path fill="#5C4846" d="M59,237.4c0.4-0.4,0.9-0.6,1.5-0.6s1.1,0.2,1.5,0.6s0.7,1,0.7,1.7c0,0.7-0.2,1.3-0.7,1.7
		c-0.4,0.4-0.9,0.6-1.5,0.6s-1.1-0.2-1.5-0.6c-0.4-0.4-0.6-1-0.6-1.6C58.3,238.4,58.5,237.8,59,237.4z M59.5,240.6
		c0.3,0.3,0.6,0.5,1,0.5s0.7-0.2,1-0.5c0.3-0.3,0.4-0.8,0.4-1.5c0-0.7-0.1-1.2-0.4-1.6c-0.3-0.3-0.6-0.5-1-0.5s-0.7,0.2-1,0.5
		s-0.4,0.8-0.4,1.5C59.1,239.8,59.2,240.3,59.5,240.6z"/>
	<path fill="#5C4846" d="M63.3,236.9H67v1.1h-0.2c-0.1-0.4-0.2-0.6-0.3-0.7c-0.1-0.1-0.4-0.2-0.7-0.2h-0.4v3.4c0,0.3,0,0.4,0.1,0.5
		s0.3,0.1,0.5,0.1v0.1h-1.9v-0.1c0.3,0,0.5-0.1,0.5-0.1c0.1-0.1,0.1-0.2,0.1-0.5v-3.3h-0.4c-0.4,0-0.6,0.1-0.7,0.2s-0.2,0.3-0.3,0.7
		h-0.2L63.3,236.9z"/>
	<path fill="#5C4846" d="M67.5,241.1c0.2,0,0.4-0.1,0.5-0.1c0.1-0.1,0.1-0.2,0.1-0.5v-2.9c0-0.2,0-0.4-0.1-0.5s-0.2-0.1-0.5-0.1
		v-0.1H71v0.9h-0.2c-0.1-0.3-0.1-0.5-0.2-0.6c-0.1-0.1-0.4-0.1-0.7-0.1H69c-0.1,0-0.2,0-0.2,0s0,0.1,0,0.2v1.5h1
		c0.3,0,0.5,0,0.5-0.1c0.1-0.1,0.1-0.3,0.2-0.5h0.2v1.5h-0.2c0-0.3-0.1-0.4-0.2-0.5c-0.1-0.1-0.3-0.1-0.5-0.1h-1v1.6
		c0,0.1,0,0.2,0.1,0.2s0.3,0,0.7,0s0.8,0,1-0.1c0.2-0.1,0.4-0.3,0.6-0.7h0.2l-0.3,1.1L67.5,241.1L67.5,241.1z"/>
	<path fill="#5C4846" d="M71.8,241.2c0.2,0,0.4-0.1,0.5-0.1c0.1-0.1,0.1-0.2,0.1-0.5v-2.9c0-0.2,0-0.4-0.1-0.5
		c-0.1-0.1-0.2-0.1-0.5-0.1V237h1.9v0.1c-0.2,0-0.4,0.1-0.5,0.1c-0.1,0.1-0.1,0.2-0.1,0.4v3.2c0,0.1,0,0.1,0,0.2
		c0,0,0.1,0.1,0.2,0.1c0,0,0.1,0,0.2,0s0.2,0,0.3,0c0.6,0,1,0,1.2-0.1s0.4-0.3,0.6-0.7h0.2l-0.3,1.1H72L71.8,241.2z"/>
</g>
</svg>
